PathFileType	4	(X/Y/Z)	./resultDataOpenSim/trcMotMarkerGrf/sub09/qtm-05-07.trc
DataRate	CameraRate	NumFrames	NumMarkers	Units	OrigDataRate	OrigDataStartFrame	OrigNumFrames
250.000000	250.000000	5	24	m	250.000000	65	513
Frame#	Time	L.Toe.Tip			R.Toe.Tip			L.Ankle.Lat			R.Ankle.Lat			L.Ankle.Med			R.Ankle.Med			L.Heel			R.Heel			L.Knee.Lat			R.Knee.Lat			L.Knee.Med			R.Knee.Med			L.Thigh.Upper			R.Thigh.Upper			L.ASIS			R.ASIS			V.Sacral			L.Acromium			R.Acromium			C7			L.Elbow			R.Elbow			L.Wrist.Lat			R.Wrist.Lat
		X1	Y1	Z1	X2	Y2	Z2	X3	Y3	Z3	X4	Y4	Z4	X5	Y5	Z5	X6	Y6	Z6	X7	Y7	Z7	X8	Y8	Z8	X9	Y9	Z9	X10	Y10	Z10	X11	Y11	Z11	X12	Y12	Z12	X13	Y13	Z13	X14	Y14	Z14	X15	Y15	Z15	X16	Y16	Z16	X17	Y17	Z17	X18	Y18	Z18	X19	Y19	Z19	X20	Y20	Z20	X21	Y21	Z21	X22	Y22	Z22	X23	Y23	Z23	X24	Y24	Z24

65	0.256	-1.3666772	0.099653385	-0.059237794	-0.65518065	0.039226271	0.073523695	-1.3896663	0.25584904	-0.095584708	-0.80160796	0.051578112	0.099929007	-1.3644273	0.23588853	-0.003397236	-0.78600851	0.095735443	0.015415745	-1.4505901	0.30006816	-0.043648378	-0.86939641	0.031651969	0.049478954	-1.0116359	0.41691912	-0.12358259	-0.75513394	0.50130144	0.17988561	-0.99565492	0.39887658	0.00081272669	-0.76798491	0.49283765	0.053306363	-0.99963056	0.82226675	-0.12759785	-0.9583947	0.85120286	0.24549954	-0.9096695	0.9091679	-0.076033977	-0.89107658	0.93594456	0.16340617	-1.0716183	0.97714325	0.054841106	-0.90036396	1.3755144	-0.11283002	-0.92521853	1.3766478	0.21544219	-0.98153297	1.4297117	0.051614402	-1.0091497	1.0137802	-0.18783838	-1.0637507	1.0392912	0.29363016	-0.76819224	0.88872577	-0.15522195	-0.94111098	0.79379836	0.29113128
66	0.26	-1.35265	0.10186463	-0.060852959	-0.6552049	0.039227281	0.073539397	-1.3764669	0.25786603	-0.095699519	-0.80189277	0.051560345	0.10030373	-1.3517715	0.23763849	-0.0035210932	-0.7858549	0.095778035	0.015511554	-1.4380489	0.30160377	-0.043646832	-0.86951928	0.0316643	0.049447019	-0.99855032	0.41773044	-0.12279455	-0.75227865	0.50089864	0.18041317	-0.98300902	0.39942759	0.0018223536	-0.76527556	0.49243999	0.05401134	-0.99345552	0.8230949	-0.12728648	-0.95322375	0.85246837	0.24575372	-0.90423609	0.91038464	-0.075759025	-0.88502218	0.93707393	0.16362252	-1.0662275	0.97843816	0.055019173	-0.89506347	1.3766228	-0.11252643	-0.91900034	1.3776581	0.21582224	-0.97577018	1.4308967	0.052296687	-1.0041986	1.0150141	-0.18699735	-1.056263	1.0394925	0.29435108	-0.76474744	0.88726364	-0.15510891	-0.93119099	0.79514823	0.29110576
67	0.264	-1.3382531	0.1038749	-0.062353436	-0.65524068	0.039221655	0.073593584	-1.3631074	0.25958248	-0.095831709	-0.8022264	0.051676016	0.10055958	-1.3389175	0.23899652	-0.0035791717	-0.78573758	0.095826234	0.015628464	-1.4253723	0.30280346	-0.043775041	-0.86957257	0.03170909	0.049382703	-0.98558702	0.41875656	-0.12196638	-0.74964955	0.50044869	0.18103151	-0.97023699	0.40016375	0.0028319987	-0.7626217	0.49208355	0.054661174	-0.98735056	0.82406854	-0.12695671	-0.94897475	0.85363922	0.24586063	-0.89881652	0.91170974	-0.075448953	-0.8792596	0.93821741	0.16380644	-1.0608272	0.97977628	0.055280141	-0.88982313	1.3778372	-0.1122213	-0.91282583	1.3787364	0.21619235	-0.970208	1.4322005	0.052601057	-0.9992835	1.0163341	-0.18616441	-1.0486478	1.0397482	0.29495618	-0.76139765	0.88586871	-0.1550097	-0.92127903	0.79666364	0.29110267
68	0.268	-1.3235048	0.10568149	-0.06372266	-0.65529146	0.039218827	0.073691419	-1.3496254	0.26100025	-0.095980183	-0.80259665	0.051871082	0.10076787	-1.3260543	0.23983973	-0.0034432625	-0.78564612	0.095886058	0.015770754	-1.4125886	0.30365922	-0.043971502	-0.86960264	0.031761551	0.049314805	-0.97273088	0.41998341	-0.12110362	-0.74708192	0.49992644	0.1816713	-0.95735744	0.40110398	0.0038263034	-0.75998574	0.49178421	0.055271861	-0.9813221	0.8251881	-0.12661046	-0.94576622	0.85469128	0.24579186	-0.89349261	0.91313296	-0.075135141	-0.87397635	0.93936281	0.1639378	-1.0553947	0.98115164	0.055663913	-0.88466916	1.3791546	-0.11192058	-0.9067302	1.3798909	0.21657319	-0.96481298	1.4335912	0.052604585	-0.99439763	1.017744	-0.18532481	-1.0410944	1.0401104	0.29556305	-0.7581437	0.88455187	-0.15491089	-0.91139333	0.79834326	0.29112983
69	0.272	-1.3084231	0.10727735	-0.064978183	-0.65536114	0.039226196	0.073837644	-1.3360436	0.26212868	-0.096134602	-0.802985	0.052084131	0.10098622	-1.3129886	0.24041595	-0.0033055285	-0.78556677	0.095959676	0.01594226	-1.3997244	0.30416887	-0.044210404	-0.86963125	0.031814981	0.04925585	-0.95997539	0.42138621	-0.12020248	-0.74439265	0.49931212	0.18226255	-0.94451808	0.40227477	0.0048202652	-0.75731276	0.491551	0.055841411	-0.97537401	0.82644513	-0.126259	-0.94294119	0.85572106	0.24566765	-0.88831255	0.91464072	-0.074836845	-0.86902806	0.94052759	0.16404736	-1.0499407	0.98256282	0.056161157	-0.87960941	1.3805665	-0.11162418	-0.90072806	1.3811271	0.21697151	-0.95947278	1.4350085	0.052568162	-0.98953802	1.0192476	-0.18445303	-1.0337845	1.0406124	0.29627294	-0.75498745	0.88332331	-0.15480506	-0.90155436	0.80018117	0.29118152
